<svg xmlns="http://www.w3.org/2000/svg" width="80" height="80" viewBox="0 0 80 80" fill="none" opacity="0.3" xmlns:xlink="http://www.w3.org/1999/xlink">
  <defs>
    <pattern id="keffiyeh" width="40" height="40" patternUnits="userSpaceOnUse">
      <!-- Main diagonal lines with better styling -->
      <g stroke="#4c2c30" stroke-width="0.8" opacity="0.3">
        <path d="M0 0L40 40" />
        <path d="M0 40L40 0" />
      </g>
      
      <!-- Secondary diagonal lines for more texture -->
      <g stroke="#5c3c40" stroke-width="0.4" opacity="0.2">
        <path d="M10 0L50 40" />
        <path d="M-10 0L30 40" />
        <path d="M10 40L50 0" />
        <path d="M-10 40L30 0" />
      </g>
      
      <!-- Central dot with gradient -->
      <defs>
        <radialGradient id="dotGradient" cx="50%" cy="50%" r="50%">
          <stop offset="0%" stop-color="#B22222" />
          <stop offset="70%" stop-color="#8B0000" />
          <stop offset="100%" stop-color="#5A0000" />
        </radialGradient>
      </defs>
      
      <!-- Main central dot -->
      <circle cx="20" cy="20" r="2" fill="url(#dotGradient)" />
      
      <!-- Smaller accent dots -->
      <circle cx="20" cy="20" r="0.8" fill="#333333" opacity="0.8" />
      
      <!-- Corner accent dots -->
      <circle cx="8" cy="8" r="0.5" fill="#B22222" opacity="0.4" />
      <circle cx="32" cy="8" r="0.5" fill="#B22222" opacity="0.4" />
      <circle cx="8" cy="32" r="0.5" fill="#B22222" opacity="0.4" />
      <circle cx="32" cy="32" r="0.5" fill="#B22222" opacity="0.4" />
      
      <!-- Subtle border lines -->
      <g stroke="#5c3c40" stroke-width="0.3" opacity="0.1">
        <line x1="0" y1="0" x2="40" y2="0" />
        <line x1="0" y1="0" x2="0" y2="40" />
        <line x1="40" y1="0" x2="40" y2="40" />
        <line x1="0" y1="40" x2="40" y2="40" />
      </g>
    </pattern>
  </defs>
  <rect width="100%" height="100%" fill="url(#keffiyeh)" />
</svg>
